# xmcd
#
# Track frame offsets: 
#        182
#        13885
#        29410
#        40512
#        53855
#        65292
#        78482
#        92120
#        106965
#        116380
#
# Disc length: 1719 seconds
#
# Revision: 3
# Processed by: cddbd v1.4PL0 Copyright (c) Steve Scherf et al.
# Submitted via: ExactAudioCopy v0.90a11
#
DISCID=7706b50a
DTITLE=Statlers, The - Greatest Hits
DYEAR=1900
DGENRE=
TTITLE0=Let's Get Started If We're Gonna Break My Heart
TTITLE1=Elizabeth
TTITLE2=Count On Me
TTITLE3=The Best I Know How
TTITLE4=Moon Pretty Moon
TTITLE5=More Than A Name On A Wall
TTITLE6=Guilty
TTITLE7=My Only Love
TTITLE8=I'll Be The One
TTITLE9=Atlanta Blue
EXTD=
EXTT0=
EXTT1=
EXTT2=
EXTT3=
EXTT4=
EXTT5=
EXTT6=
EXTT7=
EXTT8=
EXTT9=
PLAYORDER=
